<?xml version="1.0" encoding="utf-8"?>
<!-- Generator: Adobe Illustrator 18.0.0, SVG Export Plug-In . SVG Version: 6.00 Build 0)  -->
<!DOCTYPE svg PUBLIC "-//W3C//DTD SVG 1.1//EN" "http://www.w3.org/Graphics/SVG/1.1/DTD/svg11.dtd">
<svg version="1.1" id="Layer_1" xmlns="http://www.w3.org/2000/svg" xmlns:xlink="http://www.w3.org/1999/xlink" x="0px" y="0px"
	 viewBox="0 0 22 22" enable-background="new 0 0 22 22" xml:space="preserve">
<g>
	<path fill="#BFBFBF" d="M11,19.5l-1.6-1.6c-2.3-2-4-3.6-5.3-5.1C2.7,11,2,9.4,2,7.8C2,6.3,2.5,5,3.5,4s2.3-1.5,3.7-1.5
		C8.6,2.5,10,3.1,11,4c1-0.9,2.4-1.5,3.8-1.5c1.4,0,2.7,0.5,3.7,1.5S20,6.3,20,7.8c0,1.6-0.7,3.2-2.1,5c-1.2,1.5-3,3.1-5.3,5.1
		L11,19.5z M7.2,3.8C5,3.8,3.3,5.5,3.3,7.8c0,2.8,2.5,5.2,7,9.1l0,0l0.7,0.7l0.7-0.7l0,0c4.4-3.9,7-6.3,7-9.1c0-2.2-1.7-3.9-3.9-3.9
		c-1.2,0-2.5,0.6-3.3,1.5L11,6l-0.5-0.6C9.7,4.4,8.5,3.8,7.2,3.8z"/>
</g>
</svg>
